<svg width="24" height="24" fill="none" xmlns="http://www.w3.org/2000/svg"><path fill-rule="evenodd" clip-rule="evenodd" d="M5.279 6.542c-.163.095-.154.18.128 1.26.147.565.26 1.043.248 1.061-.01.018-.097.044-.19.058-.354.053-.91.206-.972.267-.056.056-.065.263-.082 1.955l-.019 1.892-.21.077c-.823.299-1.594.614-1.634.667-.036.048-.048.373-.048 1.313v1.25l.102.08c.1.08.13.08 1.437.07 1.27-.01 1.337-.015 1.388-.085.085-.116.069-.312-.03-.382-.073-.05-.255-.06-1.224-.06H3.035v-1.859l.831-.308c5.086-1.889 10.613-3.332 15.875-4.147.349-.053.657-.098.684-.098.124 0-.063 1.19-.29 1.84-.288.827-.543 1.205-1.429 2.111-.948.97-1.458 1.629-1.74 2.242l-.1.22h-2.3c-2.554 0-2.473-.008-2.471.24.001.304-.086.294 2.629.294 2.352 0 2.407-.002 2.503-.077a.406.406 0 0 0 .125-.2c.053-.248.363-.783.7-1.212.278-.351.649-.76 1.21-1.335.802-.82 1.099-1.282 1.395-2.171.23-.695.343-1.356.343-2.017 0-.31-.01-.364-.081-.436-.072-.071-.11-.078-.316-.057-.394.042-1.943.289-2.89.461l-.898.164-1.346-.777a72.773 72.773 0 0 0-1.478-.84c-.124-.06-.192-.06-.986.002-.47.036-1.09.086-1.38.111l-.524.046-.036-.115c-.404-1.304-.461-1.458-.558-1.502-.067-.03-.416-.045-1.092-.045H8.42l-.094.094c-.051.051-.093.124-.092.162 0 .038.101.42.223.85.151.531.21.791.18.807a1.455 1.455 0 0 1-.29.05l-.248.024-.279-.927c-.197-.654-.302-.946-.358-.993-.07-.06-.182-.067-1.097-.066-.64 0-1.044.016-1.087.041Zm2.063 1.255.232.763-.12.02-.635.097a9.9 9.9 0 0 0-.563.093c-.027.01-.061-.04-.084-.125l-.227-.876-.19-.735H7.11l.232.763Zm3.038-.172c.1.314.178.574.173.579-.004.004-.305.04-.668.08l-.66.07-.073-.25c-.04-.137-.12-.412-.176-.612-.057-.2-.111-.384-.121-.41-.015-.04.123-.047.662-.039l.681.01.182.572Zm3.648.997c.134.075.245.148.245.162 0 .014-.443.1-.985.191-3.293.556-6.232 1.21-8.16 1.816l-.182.056V9.566l.488-.1c1.707-.356 3.704-.602 7.596-.937.699-.06.728-.057.998.094Zm1.495.863c.38.218.464.281.408.304-.04.016-.407.1-.817.186-2.28.481-5.115 1.233-7.61 2.017a83.86 83.86 0 0 0-2.49.825c-.063.025-.068-.023-.068-.696v-.723l.64-.196c1.944-.595 4.566-1.159 8.457-1.819.537-.091.981-.167.989-.17.007-.001.228.12.492.272Zm-.015 2.36a.257.257 0 0 0-.086.42c.178.178.508-.018.43-.254-.043-.127-.22-.212-.344-.165Zm-1.655.445a.255.255 0 0 0 .011.343c.155.154.447.036.447-.182a.255.255 0 0 0-.458-.16Zm-1.505.32c-.252.197.002.566.285.414.234-.124.115-.487-.161-.493a.461.461 0 0 0-.124.079Zm-5.45 3.456c-.104.132-.1.226.015.34.09.09.116.094.556.094.44 0 .467-.005.556-.094.118-.117.12-.25.005-.357-.08-.077-.128-.083-.57-.083-.476 0-.483.001-.562.1Zm2.644-.041c-.058.04-.085.098-.085.181.001.248.106.294.668.294.42 0 .448-.005.537-.094.118-.117.12-.25.006-.357-.081-.076-.129-.083-.565-.083-.37 0-.496.013-.561.059Z" fill="#6B7280"/><path clip-rule="evenodd" d="M5.279 6.542c-.163.095-.154.18.128 1.26.147.565.26 1.043.248 1.061-.01.018-.097.044-.19.058-.354.053-.91.206-.972.267-.056.056-.065.263-.082 1.955l-.019 1.892-.21.077c-.823.299-1.594.614-1.634.667-.036.048-.048.373-.048 1.313v1.25l.102.08c.1.08.13.08 1.437.07 1.27-.01 1.337-.015 1.388-.085.085-.116.069-.312-.03-.382-.073-.05-.255-.06-1.224-.06H3.035v-1.859l.831-.308c5.086-1.889 10.613-3.332 15.875-4.147.349-.053.657-.098.684-.098.124 0-.063 1.19-.29 1.84-.288.827-.543 1.205-1.429 2.111-.948.97-1.458 1.629-1.74 2.242l-.1.22h-2.3c-2.554 0-2.473-.008-2.471.24.001.304-.086.294 2.629.294 2.352 0 2.407-.002 2.503-.077a.406.406 0 0 0 .125-.2c.053-.248.363-.783.7-1.212.278-.351.649-.76 1.21-1.335.802-.82 1.099-1.282 1.395-2.171.23-.695.343-1.356.343-2.017 0-.31-.01-.364-.081-.436-.072-.071-.11-.078-.316-.057-.394.042-1.943.289-2.89.461l-.898.164-1.346-.777a72.773 72.773 0 0 0-1.478-.84c-.124-.06-.192-.06-.986.002-.47.036-1.09.086-1.38.111l-.524.046-.036-.115c-.404-1.304-.461-1.458-.558-1.502-.067-.03-.416-.045-1.092-.045H8.42l-.094.094c-.051.051-.093.124-.092.162 0 .038.101.42.223.85.151.531.21.791.18.807a1.455 1.455 0 0 1-.29.05l-.248.024-.279-.927c-.197-.654-.302-.946-.358-.993-.07-.06-.182-.067-1.097-.066-.64 0-1.044.016-1.087.041Zm2.063 1.255.232.763-.12.02-.635.097a9.9 9.9 0 0 0-.563.093c-.027.01-.061-.04-.084-.125l-.227-.876-.19-.735H7.11l.232.763Zm3.038-.172c.1.314.178.574.173.579-.004.004-.305.04-.668.08l-.66.07-.073-.25c-.04-.137-.12-.412-.176-.612-.057-.2-.111-.384-.121-.41-.015-.04.123-.047.662-.039l.681.01.182.572Zm3.648.997c.134.075.245.148.245.162 0 .014-.443.1-.985.191-3.293.556-6.232 1.21-8.16 1.816l-.182.056V9.566l.488-.1c1.707-.356 3.704-.602 7.596-.937.699-.06.728-.057.998.094Zm1.495.863c.38.218.464.281.408.304-.04.016-.407.1-.817.186-2.28.481-5.115 1.233-7.61 2.017a83.86 83.86 0 0 0-2.49.825c-.063.025-.068-.023-.068-.696v-.723l.64-.196c1.944-.595 4.566-1.159 8.457-1.819.537-.091.981-.167.989-.17.007-.001.228.12.492.272Zm-.015 2.36a.257.257 0 0 0-.086.42c.178.178.508-.018.43-.254-.043-.127-.22-.212-.344-.165Zm-1.655.445a.255.255 0 0 0 .011.343c.155.154.447.036.447-.182a.255.255 0 0 0-.458-.16Zm-1.505.32c-.252.197.002.566.285.414.234-.124.115-.487-.161-.493a.461.461 0 0 0-.124.079Zm-5.45 3.456c-.104.132-.1.226.015.34.09.09.116.094.556.094.44 0 .467-.005.556-.094.118-.117.12-.25.005-.357-.08-.077-.128-.083-.57-.083-.476 0-.483.001-.562.1Zm2.644-.041c-.058.04-.085.098-.085.181.001.248.106.294.668.294.42 0 .448-.005.537-.094.118-.117.12-.25.006-.357-.081-.076-.129-.083-.565-.083-.37 0-.496.013-.561.059Z" stroke="#6B7280" stroke-width=".2" mask="url(#a)"/></svg>